<svg width="29" height="32" viewBox="0 0 29 32" fill="none" xmlns="http://www.w3.org/2000/svg">
<path d="M0.95661 0L16.9519 16L0.958181 32C0.673775 31.8804 0.431069 31.6794 0.260581 31.4223C0.0900927 31.1652 -0.000566689 30.8634 2.66534e-06 30.5549V1.44669C-0.000185239 1.13827 0.0904277 0.836617 0.260541 0.579351C0.430655 0.322086 0.672741 0.120593 0.95661 0ZM18.0624 17.1105L21.6784 20.7265L4.49873 30.6743L18.0624 17.1105ZM23.0874 12.0872L27.4966 14.6413C27.7346 14.7794 27.9322 14.9775 28.0695 15.216C28.2069 15.4545 28.2792 15.7248 28.2792 16C28.2792 16.2752 28.2069 16.5455 28.0695 16.784C27.9322 17.0225 27.7346 17.2206 27.4966 17.3587L23.0858 19.9128L19.173 16L23.0874 12.0872ZM4.49873 1.32574L21.68 11.2719L18.0624 14.8895L4.49873 1.32574Z" fill="#F4F4F5"/>
</svg>
